<svg class="impact-logo" xmlns="http://www.w3.org/2000/svg" viewBox="0 0 584.59 482.83">
  <path fill="#ffffff" d="M182.59 0v219.42h219.42V0H182.59zm163.77 24.14l-139.64 83.78V24.14h139.64zM206.73 136.07l148.02-88.81-88.81 148.02h-59.21v-59.21zm87.35 59.21l83.78-139.63v139.63h-83.78zM0 391.6v-90.81h23.42v90.81H0zm135.72 0v-59.09l-23.01 59.09h-10.35l-22.87-59.09v59.09H56.08v-90.81h32.54l18.92 49.29 19.06-49.29h32.54v90.81h-23.42zm56.08 0v-90.81h45.47c20.42 0 31.59 13.75 31.59 30.23 0 16.34-11.16 30.09-31.59 30.09h-22.06v30.5H191.8zm53.24-60.58c0-6.26-4.63-9.8-10.89-9.8h-18.92v19.47h18.92c6.26-.01 10.89-3.55 10.89-9.67zm106.6 60.58l-4.49-13.07h-35.81l-4.49 13.07H280.3l34.17-90.81h29.41l34.31 90.81h-26.55zm-22.46-67.66l-11.57 34.17h23.14l-11.57-34.17zm67.12 22.32c0-28.05 21.24-46.97 49.15-46.97 21.92 0 33.63 12.39 39.62 24.37l-20.15 9.53c-2.99-7.22-10.76-13.21-19.47-13.21-14.84 0-25.32 11.44-25.32 26.28 0 14.84 10.48 26.28 25.32 26.28 8.71 0 16.47-5.99 19.47-13.21l20.15 9.53c-5.85 11.71-17.7 24.37-39.62 24.37-27.91.01-49.15-19.05-49.15-46.97zm139.55 45.34v-70.39h-25.46v-20.42h74.2v20.42h-25.32v70.39h-23.42zM151.36 475.87l3.22-4.14c2.89 3.22 7.62 6.24 13.79 6.24 7.81 0 10.31-4.2 10.31-7.55 0-11.29-25.94-5.06-25.94-20.68 0-7.22 6.43-12.15 15.04-12.15 6.7 0 11.89 2.23 15.56 6.11l-3.28 4.01c-3.28-3.61-7.88-5.25-12.67-5.25-5.25 0-9 2.82-9 6.96 0 9.85 25.94 4.2 25.94 20.55 0 6.37-4.33 12.87-16.15 12.87-7.63-.01-13.21-2.9-16.82-6.97zM201 465.03v-26.79h5.45v26.66c0 8.01 4.33 13.07 12.41 13.07s12.41-5.06 12.41-13.07v-26.66h5.45v26.72c0 10.9-5.98 17.86-17.86 17.86-11.89.01-17.86-7.02-17.86-17.79zm91.92 17.01v-36.05l-14.91 36.05h-2.23l-14.84-36.05v36.05h-5.45v-43.8h7.81l13.59 32.96 13.66-32.96h7.81v43.8h-5.44zm61.65 0v-36.05l-14.91 36.05h-2.23l-14.84-36.05v36.05h-5.45v-43.8h7.81l13.59 32.96 13.66-32.96h7.81v43.8h-5.44zm24.23 0v-43.8h5.45v43.8h-5.45zm35.06 0V443.1h-13.85v-4.86h33.22v4.86h-13.92v38.94h-5.45z"></path>
</svg>
