<svg class="brands__image brands__image--burchard" xmlns="http://www.w3.org/2000/svg" viewBox="0 0 1920.34 141.63">
  <path d="M76.79 69.3c2.75.85 4.95 1.48 7.11 2.22 16.69 5.7 23.42 18.62 21.74 35.69-1 9.68-4.91 17.79-13 23.44-5.88 4.08-12.64 6.07-19.64 6.89a144.25 144.25 0 0 1-15.69 1c-18.16.11-36.33 0-54.49.09C.65 138.59 0 138 0 135.79q.09-65 0-130C0 3.64.54 3 2.79 3c17.91.05 35.83 0 53.74 0 10.57 0 20.74 1.8 29.86 7.52 8.94 5.6 13.46 13.78 14.82 24.21 2 15.52-8.34 28.91-21 33.11-.97.33-1.91.82-3.42 1.46zM28.14 79.65c0 12.42 0 24.15.07 35.87a2.24 2.24 0 0 0 1.57 1.53c10.24-.07 20.51.17 30.7-.56 6.9-.49 12.32-4.34 14.43-11.32s1.55-13.91-4.07-19.45a16.52 16.52 0 0 0-10.69-4.93c-10.54-.6-21.09-.79-32.01-1.14zm0-38.32v15.22c0 1.09 0 2 1.48 2 9-.19 18-.11 26.93-.62a15 15 0 0 0 11.16-5.33c4.21-5.23 4.36-11.23 2.8-17.28-1.65-6.4-7.19-10.39-14.66-10.66-8.56-.3-17.13-.18-25.69-.32-1.73 0-2.07.73-2 2.27.03 4.9-.02 9.81-.02 14.72zm418.09 56.51c-3.07-6-6-12-9.24-17.91q-20.67-37.63-41.46-75.2A3.12 3.12 0 0 0 392.34 3c-8.74.06-17.49.11-26.24 0-2.25 0-2.8.68-2.78 2.83.09 13.08.05 26.16.05 39.24v91c0 1.92.52 2.6 2.54 2.56 7.08-.12 14.17-.1 21.25 0 1.88 0 2.63-.39 2.61-2.46q-.59-45.11-1-90.22c0-.7.11-1.39.22-2.69.61 1 .89 1.36 1.12 1.77q24.89 45.63 49.78 91.32a3.77 3.77 0 0 0 3.91 2.23c8.58-.1 17.17-.12 25.75 0 2.21 0 2.81-.59 2.81-2.79q-.09-65-.05-130c0-.88-.12-1.76-.18-2.64h-26.4c.34 31.61.67 63 1 94.48zM803.63 45q25 45.78 50 91.59a3.27 3.27 0 0 0 3.31 2q13.26-.15 26.5 0c2 0 2.54-.65 2.52-2.58-.08-9.91 0-19.83 0-29.74V5.78c0-2.18-.56-2.86-2.79-2.81-6.49.14-13 0-19.49 0h-4.39c.35 31.81.7 63.24 1 94.67-3.59-5.82-6.49-11.8-9.68-17.61Q829.9 42.32 809 4.69a4 4 0 0 0-2.91-1.61C797.47 3 788.89 3 780.3 3c-3.38 0-3.38 0-3.38 3.38v129.74c0 1.82.49 2.51 2.41 2.46 4.58-.13 9.16 0 13.74 0h10.35c-.28-31.75-.57-63.18-.86-95.4.58 1 .84 1.41 1.07 1.82zM625.81 71c.19-13.28 2.43-26 8.63-37.89C642.19 18.33 654 8.32 670.09 3.52 690-2.44 709.36-1 727.58 9.21c13.52 7.58 22.23 19.38 26.87 34.08a89.19 89.19 0 0 1 1.42 50.51c-5 18.9-15.92 33.31-34.09 41.6-14.9 6.8-30.42 7.65-46.18 4.37-16.09-3.35-29-11.81-38.09-25.67a69.35 69.35 0 0 1-10.42-28.89c-.65-4.69-.87-9.44-1.28-14.21zm103.19.35c-.85-5.92-1.17-12-2.65-17.72-3.63-14.11-11.35-24.88-26.51-28.09-16.69-3.54-31.53 2.75-38.7 18.9-6.87 15.49-6.85 31.56-1.86 47.56 4.89 15.65 17.64 26.13 35.27 25.1 11.91-.69 21-6 27-16.15 5.45-9.06 7.01-19.13 7.45-29.6zm-232.59-.78c0-21.5 0-43-.05-64.5 0-2.32.5-3.14 3-3.12 16.41.13 32.84-.18 49.24.2 11.87.27 23.52 2.31 34.4 7.5a48.62 48.62 0 0 1 24.17 24.9c5.54 12.52 6.76 25.82 6.4 39.34a76.81 76.81 0 0 1-5.42 27.53c-7 17.15-19.84 27.71-37.54 32.64a96.71 96.71 0 0 1-26.64 3.5c-14.75-.09-29.5 0-44.25 0-3.31 0-3.31 0-3.31-3.22zm28.12 47c10-.47 19.63-.34 29.15-1.52 13.5-1.68 22.31-9.85 26.54-22.62 4.71-14.21 4.45-28.67.72-43.06a32.73 32.73 0 0 0-13.58-19.67 37.61 37.61 0 0 0-19.54-6.06c-6.81-.34-13.65-.1-20.47-.32-2.36-.08-2.88.69-2.87 3q.12 43.47 0 86.92zm-328.25-38c4.35 1.29 8.26 3.36 11 6.95a87 87 0 0 1 6.13 9.39c7.79 13.48 15.48 27 23.2 40.52.31.55.54 1.15.91 2-1 .06-1.68.15-2.39.15-9.25 0-18.5-.05-27.75.05a3.5 3.5 0 0 1-3.6-2.28c-6.21-12-12.44-23.92-18.8-35.81-2.69-5-6.37-9.18-12.12-10.85a20.58 20.58 0 0 0-5.15-.88c-5-.11-9.93 0-15.24 0v2.73c0 14.74-.05 29.49.05 44.24 0 2.34-.68 2.94-3 2.9-7.58-.14-15.17-.13-22.75 0-2 0-2.53-.68-2.53-2.58q.06-65.23 0-130.48c0-1.93.54-2.56 2.55-2.55 17.16.08 34.33-.09 51.49.13 9.7.12 19.25 1.56 28.17 5.74C219.74 15.06 226.7 25.6 228 40.1a37.26 37.26 0 0 1-1.48 15.29c-4.07 12.1-13.24 18.51-24.92 22-1.72.51-3.47.93-5.2 1.39zm-43.67-12.7c10.21-.44 20.09-.69 29.92-1.44 2.59-.19 5.27-1.58 7.54-3 6.2-3.93 7.78-10.26 8-17.07.3-10.44-5.1-18.43-15.37-19.86-9.72-1.37-19.72-.76-29.59-1-.13 0-.26.17-.47.32zm128.1 11.07h41.65c2.32 0 3.26-.57 3.17-3.07q-.27-7.62 0-15.25c.09-2.5-.85-3.08-3.17-3.06-13 .09-26 0-39 0h-2.85v-2.69c0-8.83.08-17.67-.05-26.5 0-2.36.56-3.08 3-3.07 18.58.11 37.16.06 55.74.05 1.05 0 2.11-.11 3.26-.17v-21c-.67 0-1.23-.13-1.8-.13h-86c-2 0-2.35.75-2.34 2.5.07 7.83 0 15.66 0 23.49v106.49c0 2 .06 3.16 2.71 3.15q43.62-.15 87.24 0c2 0 2.62-.6 2.58-2.55-.1-5.16 0-10.33 0-15.5 0-3.39 0-3.4-3.5-3.4h-60.64zM1018 67.43c4.18 1.46 7.71 2.43 11 3.89q16 7 18.48 24.47c1.11 7.87.4 15.48-2.94 22.69-4.86 10.48-13.75 15.81-24.65 17.87a114.26 114.26 0 0 1-18.81 1.92c-14.41.27-28.83 0-43.25.14-2.32 0-3.14-.5-3.14-3q.12-64.62 0-129.25c0-2.45.74-3 3.1-3 15.16.1 30.33-.11 45.49.12a55.45 55.45 0 0 1 23.69 5.31c10.13 4.93 15.69 13.16 16.76 24.3 1.14 12-2.31 22.15-12.8 28.93-3.09 2-6.78 3.08-10.2 4.57-.73.29-1.47.54-2.73 1.04zm-46.4 32.43c0 7.5.1 15 0 22.5 0 2.47.84 3.13 3.16 3.1 8.16-.1 16.33 0 24.5-.07a64.23 64.23 0 0 0 9.18-.77c12.72-2 19.89-9 21.49-21.37 1.39-10.75-2.55-20.29-12.32-25.1A42.28 42.28 0 0 0 999.66 74c-8.33-.19-16.67 0-25-.09-2.44 0-3.18.87-3.15 3.22.11 7.56.04 15.14.04 22.73zm0-61.3v20.22c0 1.53.24 2.63 2.12 2.6 10.31-.2 20.67.17 30.92-.69 12.88-1.09 19.91-7.62 21.33-19.11 1.22-9.91-1.33-17.87-10.54-22.09a31.64 31.64 0 0 0-11.22-3c-10-.49-20.13-.32-30.19-.45-1.79 0-2.47.69-2.44 2.54.03 6.67-.03 13.32-.03 19.98zm840.23 32.23V7.29c0-4.87-.16-4.08 4.21-4.08 13.5 0 27-.28 40.5.1 12.37.35 24.47 2.34 35.63 8.29 13.09 7 20.81 18.07 24.75 32 3.48 12.33 4 25 3 37.63-1 12.36-4.23 24.12-11.64 34.29-7.1 9.76-16.75 16-28.34 19.33a96.13 96.13 0 0 1-26.88 3.47c-12.75 0-25.5-.07-38.24 0-2.5 0-3.06-.79-3-3.13-.01-21.4-.04-42.9-.04-64.4zm16.89 0c0 17.15 0 34.31-.06 51.46 0 2.59.85 3.28 3.27 3.24 6.49-.11 13 .18 19.48-.1a112.08 112.08 0 0 0 17.08-1.71c15.22-3.06 25.43-12.19 30.27-26.94 5.06-15.41 4.86-31.13 1.5-46.8-2.41-11.24-8.1-20.57-18.16-26.68a49.76 49.76 0 0 0-24-6.87c-8.73-.38-17.48-.16-26.22-.35-2.49-.05-3.27.74-3.26 3.28.1 17.13.05 34.28.05 51.44zm-78.19 6.1a9.56 9.56 0 0 0 1.1.57c7.07 2.55 11.21 8.23 14.73 14.32 8.48 14.71 16.72 29.56 25 44.35.32.56.55 1.17 1 2.26H1787c-3.92 0-7.84-.1-11.75 0a3.32 3.32 0 0 1-3.5-2.09c-6.48-12.2-13-24.41-19.6-36.52A71.51 71.51 0 0 0 1745 89a20.1 20.1 0 0 0-16.16-7.62c-5.5 0-11 .06-16.49-.13-2.3-.08-2.8.78-2.79 2.89.07 16.83 0 33.66 0 50.49 0 3.75 0 3.75-3.62 3.75s-7-.14-10.49 0c-2.28.12-2.78-.74-2.78-2.87q.09-51.87 0-103.74c0-8.58.06-17.17 0-25.75 0-2.09.42-2.92 2.73-2.9 14 .11 28-.11 42 .11 9.78.16 19.47 1.34 28.34 5.9 9.88 5.07 15.91 13 17.84 24.12 1.63 9.34 1 18.28-4.12 26.46-5.8 9.22-14.72 13.64-25.06 15.69-1.2.24-2.42.43-3.63.65zm-40.87-35.11v23.47c0 1.92.62 2.61 2.6 2.58 8.24-.09 16.49.12 24.73-.11a49.1 49.1 0 0 0 12.54-1.51c15.83-4.7 22.5-24.31 13.29-38.53-4.82-7.42-12.24-10.68-20.55-11.18-10.12-.62-20.29-.32-30.44-.44-1.75 0-2.26.81-2.25 2.46.06 7.74.03 15.48.03 23.23zM1197.15 3.34c1.12-.06 1.93-.14 2.74-.14 13.84 0 27.67-.16 41.5 0 9.86.15 19.65 1.29 28.61 5.87 11.69 6 17.61 15.79 18.47 28.78.52 7.72-.35 15.13-4.66 21.81-6 9.23-14.86 13.74-25.31 15.73l-3.71.68c.59.69.82 1.21 1.19 1.35 6.87 2.54 11 8 14.4 14 8.64 15 17 30.13 25.54 45.22.2.35.34.73.67 1.45-.91.09-1.6.22-2.28.22-4.92 0-9.84-.09-14.75.05a3.53 3.53 0 0 1-3.67-2.24c-6.56-12.34-13.12-24.69-19.83-36.95a65.23 65.23 0 0 0-6.57-10 20.42 20.42 0 0 0-16.55-7.86c-5.5 0-11 0-16.5-.13-2 0-2.56.58-2.55 2.56.07 17.16 0 34.33.08 51.5 0 2.33-.53 3.25-3 3.12-3.91-.21-7.84-.1-11.75 0-1.49 0-2.21-.42-2-2a12.51 12.51 0 0 0 0-1.5V3.34zm16.78 38.5c0 7.66.07 15.32 0 23 0 2.24.51 3.09 2.9 3 5.07-.18 10.16.08 15.23-.09 6.63-.22 13.36-.06 19.85-1.17 8.59-1.47 14.92-6.55 17.47-15.18a36.69 36.69 0 0 0 1.29-10.81c-.11-8.94-3.59-16.3-11.95-20.31-3.82-1.83-8.09-3.47-12.24-3.72-10.12-.61-20.29-.36-30.43-.49-1.88 0-2.11 1-2.1 2.57.05 7.72-.02 15.46-.02 23.2zm326.3 96.52c3.7 0 3.7 0 3.7-3.59v-128a8.78 8.78 0 0 0-.06-2.24c-.14-.51-.71-1.28-1.11-1.29-5.12-.08-10.25-.06-15.57-.06v55.6c0 2.28-.64 3-3 3q-30.49-.12-61 0c-2.35 0-2.92-.75-2.91-3 .09-17.08.06-34.16 0-51.24 0-5 .48-4.31-4.43-4.35h-12.33V136.5c-.13 1.42.51 1.88 1.9 1.86 3.92-.07 7.84-.19 11.75 0 2.6.16 3.2-.74 3.18-3.23-.1-18.74 0-37.49 0-56.23 0-3.18.15-3.37 3.39-3.37h60c3.21 0 3.37.21 3.37 3.41v59.37zm-469.9-47a92.84 92.84 0 0 0 1.82 17.05c3.47 16.7 14.11 26.76 30.39 30.83a75.41 75.41 0 0 0 32.21.55c14.46-2.7 25.14-10.53 30.87-24.43 3.2-7.75 4.12-15.95 4.16-24.2.12-28.16 0-56.32 0-84.48a6.26 6.26 0 0 1 0-.75c.29-2.18-.63-3-2.83-2.86-3.49.15-7 0-10.5 0s-3.41 0-3.41 3.4v82a77.45 77.45 0 0 1-.88 11.68c-2 12.82-8.69 21.79-21.59 25.29-7.32 2-14.7 1.43-22-.34a25.35 25.35 0 0 1-15.75-11 36.16 36.16 0 0 1-5.42-15.91 85.43 85.43 0 0 1-.48-9.47V5.99c0-2.33-.69-3-3-2.91-3.66.16-7.33.15-11 0-2.18-.09-2.85.58-2.84 2.81.1 15 0 30 0 45 .16 13.5-.01 27 .25 40.49zm344.32-71.55a52.39 52.39 0 0 0-26.76-17 69.36 69.36 0 0 0-26-2.14 63.3 63.3 0 0 0-20.6 5.33c-16 7.57-25.46 20.6-30.63 37.16-4 12.79-4.3 25.89-3 39.05 1.34 13.37 5.44 25.83 13.53 36.76 7.24 9.77 16.8 16.09 28.43 19.62 7.8 2.37 15.73 2.6 23.72 2.33a59.46 59.46 0 0 0 18.77-3.52c12.86-4.78 22.11-13.57 28.71-25.4.56-1 1.13-1.91-.34-2.65-4.74-2.37-9.47-4.77-14.37-7.24l-1.21 2.35c-4.5 8.8-10.78 15.75-20.17 19.5-6 2.39-12.26 3-18.63 2.71a36.74 36.74 0 0 1-24.75-10.3c-7.91-7.54-12.36-17-14.65-27.55-3.59-16.6-3-32.88 3.7-48.68 10.76-25.22 37.92-30.7 58-20.44 6.5 3.31 11.19 8.53 15.21 14.48.46.67 1.84 1.48 2.35 1.25 4.83-2.2 9.57-4.61 14.84-7.21-2.19-3.08-4.02-5.86-6.15-8.39zm148.17 118.53c1.83-5.23 3.45-9.92 5.11-14.6q17.92-50.52 35.86-101c2-5.71 4.14-11.4 6.12-17.14.59-1.71 1.38-2.54 3.37-2.44 3.57.19 7.16.12 10.74 0a2.64 2.64 0 0 1 3.06 2.11q17.42 49.65 35 99.25 5.6 15.87 11.22 31.73c.19.54.34 1.09.58 1.86a19.26 19.26 0 0 1-2 .23c-4.34 0-8.67-.11-13 .06-1.92.08-2.59-.72-3.12-2.36-3.39-10.44-6.92-20.83-10.27-31.27-.7-2.19-1.75-2.94-4.08-2.93q-23.25.16-46.5 0c-2.27 0-3.34.64-4.06 2.91-3.26 10.3-6.81 20.5-10.11 30.78-.71 2.22-1.77 3-4.1 2.87-4.45-.19-8.86-.04-13.82-.04zM1618.65 23h-.57c-.38 1-.82 1.91-1.13 2.9-1.37 4.36-2.62 8.76-4 13.09q-7.79 23.55-15.65 47.07c-.91 2.73-.71 3 2.19 3h38c1.72 0 2.62-.47 1.79-2.36-.2-.45-.3-1-.46-1.42L1622 33.37z"/>
</svg>
