<svg class="brands__image brands__image--engadget" xmlns="http://www.w3.org/2000/svg" viewBox="0 0 556.39 120">
  <path d="M512.33 0h10.85v32.54h33.21V43.4h-33.21v54.91h-10.85V0zM230.27 55.59c-.13-6.52 5.93-12.37 12.41-12.19 10.54 0 21.1-.09 31.64 0v44.06c-14.69 0-29.39-.07-44.08 0V55.6zm11.72-23c-11.51 0-22.15 9.73-22.13 21.18-.18 11.77-.08 23.54 0 35.31 0 5.66 6.24 9.48 12 9.26 6.77 0 13.54.08 20.31-.06 8.33.06 17.29-3.45 22.26-10.54-.1 3.53 0 7.07 0 10.59h10.85c0-17.81.15-35.68 0-53.49.08-5.38-3.39-11.5-9.18-12.15-3.68-.29-7.37-.06-11-.12h-23zm-168.1 7.25c-1.24 2.81-.86 6-.91 8.94V98.3h10.79c.15-12.52 0-25 .08-37.56V43.38h32.79a11.41 11.41 0 0 1 5.29 1.34 29.64 29.64 0 0 1 2.59 2 12.69 12.69 0 0 1 3.39 8.74v42.72c3.61.14 7.23 0 10.83 0V68.8c-.09-5.5.2-11-.17-16.51-1.22-10.26-10.11-19.33-20.6-19.8-6.21-.16-12.42 0-18.63-.07-5.38 0-10.76 0-16.13.05a12.41 12.41 0 0 0-9.33 7.25zm127.26 3.56v44h-44.07v-44zm-.89-10.86c5.85-.32 10.74 4.71 11.49 10.26v67.08A10.76 10.76 0 0 1 201 120h-43.29v-10.83h43.48V98.31H156.8c-5.34-.33-9.67-5.07-10.37-10.26V42.8c.7-5.2 5-9.94 10.4-10.26zm147.07 54.9v-44h-44.07v44zM303 98.3h54.92V0h-10.59v32.53H303c-5.34.33-9.67 5.07-10.37 10.26V88c.7 5.2 5 9.94 10.4 10.26zm117.89-54.9v44h-44.07v-44zM420 32.54c5.84-.32 10.74 4.71 11.48 10.26v67.08A10.75 10.75 0 0 1 420.7 120h-43.29v-10.83h43.49V98.33h-44.36c-5.34-.33-9.66-5.1-10.36-10.33V42.8c.7-5.2 5-9.94 10.39-10.26zm29.88 10.86v22.35H494V43.4zm.88-10.86c-5.85-.32-10.74 4.71-11.48 10.26v45.39a10.75 10.75 0 0 0 10.8 10.1h43.88V87.46h-44.08V76.61h44.35c5.34-.34 9.66-5.07 10.36-10.26V42.8c-.7-5.2-5-9.94-10.39-10.26zM10.61 43.4v22.35h44.07V43.4zm.88-10.86C5.65 32.22.75 37.25 0 42.8v45.39a10.75 10.75 0 0 0 10.8 10.1h43.88V87.46H10.6V76.61H55c5.34-.34 9.66-5.07 10.36-10.26V42.8c-.7-5.2-5-9.94-10.39-10.26z" fill="#748493" fill-rule="evenodd"/>
</svg>
