<svg class="brands__image brands__image--entrepreneur" xmlns="http://www.w3.org/2000/svg" viewBox="0 0 685.36 133.79">
  <path d="M61.14 74.87c.33 8.4.65 16.64 1 25H1v-8.74l8.58-1.47V9.74L0 8.69V0h60.8c-.47 8-.93 15.93-1.41 24.16l-11.93-.43c-.28-5-.55-9.86-.82-14.89H28.06v35.61h8.05c.62-2.59 1.23-5.16 1.88-7.84h8.29V61.1h-8.14c-.67-2.63-1.35-5.32-2-8.1h-8v37.79h18.63c.59-5.37 1.18-10.71 1.81-16.34zm276-19.5c.6 7.9.74 15.85-.79 23.68a43.23 43.23 0 0 1-2.51 8.5c-3.53 8.24-10 12.59-18.87 13.37A26.39 26.39 0 0 1 301.8 99a7.74 7.74 0 0 0-1-.27v26.77l6.91 1.42c-.15 2.26-.3 4.5-.46 6.87H277c.16-2.44.31-4.62.46-6.87l6.48-1.43V40.24l-7.69-1.16V32l20.34-2.82c.73 2.62 1.41 5.06 2.13 7.61a9.68 9.68 0 0 0 .82-.73c5-5.71 11.35-7.67 18.66-7 9.17.88 14.21 6.67 16.75 14.93a53.29 53.29 0 0 1 2.21 11.38zm-16.34-.16a36.83 36.83 0 0 0-1.53-8.21c-1.82-5.8-5.75-8-11.77-7-.3.05-.59.14-.89.19a7 7 0 0 0-5.91 7.14v41.94a21.19 21.19 0 0 0 16 .55 2.69 2.69 0 0 0 1.93-2c.64-2.65 1.45-5.28 1.83-8a113.48 113.48 0 0 0 .36-24.61zm182.4 33.44V48.89a31.53 31.53 0 0 0-.41-5.23c-1.05-6.22-4.22-11-10.27-13.21a22.7 22.7 0 0 0-20.77 2.26c-1.71 1.08-3.26 2.43-4.75 3.56-.58-2.09-1.17-4.23-1.77-6.44l-19.78 2.83v7.41l7.65.88v50.3l-6.69 1.43v7.24h30c.16-2.5.3-4.88.45-7.27l-6.86-1.4a3.67 3.67 0 0 1-.17-.67V46.7a5.08 5.08 0 0 1 3.48-4.63 11.36 11.36 0 0 1 6.95-.59c2.5.55 4.43 1.86 5.21 4.28a21.07 21.07 0 0 1 1.14 6.24c.09 15.46 0 30.93 0 46.39 0 .51.05 1 .07 1.54H510c.13-2.46.26-4.78.39-7.25l-7.16-1.43zm-378.48-.17v-40a28.41 28.41 0 0 0-.49-5.45c-1.4-6.87-5.36-11.57-12.27-13.26a23.29 23.29 0 0 0-21.58 5c-.65.55-1.28 1.12-1.83 1.62l-1.8-6.59-19.82 2.88v7.4l7.63.85c.5 2.57.38 48.71-.1 50.35L68 92.68c-.14 2.53-.26 4.84-.39 7.23H98c.14-2.47.28-4.8.43-7.26l-6.9-1.4c0-.85-.1-1.6-.1-2.35v-8.22-33.36a5.24 5.24 0 0 1 1.27-3.52c2.17-2.67 5.16-2.73 8.12-2.45 4.08.39 6.48 2.79 7.1 6.83a34 34 0 0 1 .42 5.23v46.51h23.41V96.2c0-1.2.11-2.36.17-3.57l-7.13-1.4zm502.33 0V37.53c0-2.91-1-5.48-1.9-8.3l-22.57 2.57v6.52l7.69.77a3.65 3.65 0 0 1 .21.7v44.33c0 1.86-2.33 5-4.18 5.48a20.73 20.73 0 0 1-5.17.72c-4.93-.08-8.09-3-8.74-7.92a41.49 41.49 0 0 1-.36-5.46V36.73c0-2.66-1.09-5-1.71-7.53l-22.52 2.61v6.5l7.71.83v41.25a32.63 32.63 0 0 0 .47 5.67c1 5.66 3.83 10.1 9.09 12.65 6.79 3.29 17.47 4 25.42-3.24.42-.38.89-.71 1.53-1.2l1.83 5.61h19.48c.26-2.45.49-4.77.74-7.23l-7-1.44zM273.31 48.21a56.09 56.09 0 0 1 2 15.55c0 1.72-1 3.43-1.56 5.18l-34.4.42c0 5.69.88 10.73 3.91 15.17a13.28 13.28 0 0 0 11.36 6.13 31.77 31.77 0 0 0 13.09-2.61c.55-.23 1.12-.44 1.88-.74l2.85 6.51a43 43 0 0 1-3.72 2.49c-8.44 4.56-17.31 6.13-26.65 3.41-7.82-2.28-13-7.7-16.33-14.9-3.71-7.93-4.55-16.35-3.83-25a44.48 44.48 0 0 1 3.82-15.19c3.64-7.83 9.33-13.28 18-15.1C252 27.81 259.67 28.86 266 35c3.78 3.61 5.86 8.25 7.31 13.21zm-13.17 12.16c-.18-2.12-.28-3.86-.49-5.58-.5-4.09-1.28-8.12-3.34-11.76-2.27-4-5.7-5.24-10.06-3.84a5.27 5.27 0 0 0-3.53 3.21A52.78 52.78 0 0 0 239 59.93a7.8 7.8 0 0 0 .26 1.41zm303-15.72a48.62 48.62 0 0 1 3.15 19c0 1.75-.92 3.47-1.43 5.28l-34.38.42a23.17 23.17 0 0 0 .57 7 20.37 20.37 0 0 0 4.28 9.45 13 13 0 0 0 10 4.79A30.19 30.19 0 0 0 558 88.37c.83-.34 1.68-.65 2.71-1l2.84 6.6c-.38.24-.76.48-1.13.74a34.63 34.63 0 0 1-24.26 6.13c-10.79-1.18-18-7.53-21.91-17.35a49.47 49.47 0 0 1 .37-38.27c3.34-8.11 9.24-13.73 18.07-15.62 6.92-1.48 13.62-1 19.68 3.14 4.32 2.93 6.95 7.15 8.81 11.91zm-12 15.72a51.77 51.77 0 0 0-2.1-13.49 19.07 19.07 0 0 0-3.19-6c-2.71-3.5-11.09-2.79-12.38 2-1 3.88-2.35 7.67-2.89 11.67a21.34 21.34 0 0 0-.27 6.77zM440.45 43.52a50.4 50.4 0 0 1 3.65 20.08c0 1.79-1 3.58-1.55 5.34l-34.41.42c.06 6.2 1 11.79 4.94 16.49a12.78 12.78 0 0 0 9.72 4.78 30.46 30.46 0 0 0 12.94-2.25l2.68-1.07 2.8 6.47c-.8.59-1.54 1.21-2.35 1.72a34.51 34.51 0 0 1-25.6 4.88c-8.5-1.64-14.42-6.95-18.24-14.57s-5-16-4.4-24.63a46.14 46.14 0 0 1 3.92-16.55c2.86-6.15 7-11.1 13.46-13.64 7.54-3 15.14-3.26 22.48.71 4.82 2.61 7.84 6.88 9.96 11.82zm-11.53 16.84c-.21-2.3-.32-4.32-.58-6.33a29.38 29.38 0 0 0-3.17-10.87c-2.48-4.36-6.2-5.61-10.84-3.72a4.42 4.42 0 0 0-2.55 2.4 47.23 47.23 0 0 0-3.61 14c-.21 1.71-.31 3.42-.48 5.46zM213.64 29.8a38.64 38.64 0 0 0-15.59 4.76c-.83.48-1.64 1-2.44 1.48-.54-2.13-1-4.08-1.55-6.2l-20.32 2.82v7.43l7.2.84v50.39l-6.25 1.6v7h29.93c.14-2.41.26-4.66.4-7l-6.94-1.58v-48a14.54 14.54 0 0 1 7.14-2.49c.41 3.36.81 6.57 1.23 10l11.2.46c.71-6.39 1.41-12.56 2.09-18.64a5.94 5.94 0 0 0-6.1-2.87zm470 2.84a5.64 5.64 0 0 0-6.4-2.78 76.86 76.86 0 0 0-9.11 2 87.83 87.83 0 0 0-8.65 3.9c-.46-1.8-1-3.75-1.5-5.88l-20.41 2.81v7.4l7.34.89v50.36l-6.21 1.53c-.11 2.36-.21 4.62-.33 7.08h30.15c.15-2.4.3-4.71.45-7.07L662 91.31v-48.4l7-2.46c.46 3.65.87 6.93 1.3 10.35l11.18.42c.76-6.45 1.45-12.63 2.11-18.58zM382 29.84a39.08 39.08 0 0 0-11.67 3c-2 .95-3.9 2-5.86 3l-1.72-6-20.25 2.84v7.41l7.29.84v50.39l-6.34 1.61v7h29.86c.2-2.38.38-4.62.58-7l-7.07-1.58V43l7.18-2.61c.46 3.78.86 7 1.28 10.42l11.22.41c.72-6.53 1.39-12.71 2-18.67a6.19 6.19 0 0 0-6.5-2.71zM161.49 91a5.17 5.17 0 0 1-5.24-4.73 20.71 20.71 0 0 1-.13-2.73q0-20.43-.05-40.87a15.35 15.35 0 0 1 .22-1.81l11.2-1.28c.25-2.92.5-5.74.78-8.89h-12.46V16.51l-11.35.59c-1.33 4.51-2.64 8.92-4 13.35l-8.86.43c-.14 3.06-.26 5.83-.39 8.67l7.86 1.31c.06.85.17 1.66.17 2.48v41.1a37.28 37.28 0 0 0 .16 4.1c.76 6.54 5 10.93 11.51 12.06a35.22 35.22 0 0 0 12.7-.37 14.43 14.43 0 0 0 5.65-1.89c-.25-2.42-.49-4.81-.75-7.34-2.51 0-4.75.05-7.02 0zm523.87 4.63c0 2.77-2.56 5-5.82 5s-5.86-2.22-5.86-5 2.6-5 5.86-5 5.82 2.26 5.82 4.99zm-1.71 0a4.13 4.13 0 1 0-4.11 3.75 3.88 3.88 0 0 0 4.11-3.76zM682 96.89a4.4 4.4 0 0 0 .36 1.1h-1.81a2.73 2.73 0 0 1-.36-1 .79.79 0 0 0-.89-.69h-.53V98h-1.57v-4.59a15.77 15.77 0 0 1 2.31-.15 4.37 4.37 0 0 1 2.1.35 1.14 1.14 0 0 1 .56 1c0 .46-.49.86-1.22 1v.06a1.43 1.43 0 0 1 1.05 1.22zm-1.71-2.07c0-.38-.36-.58-.92-.58h-.53v1.09h.46c.63.03 1.03-.17 1.03-.51z" fill="#748493"/>
</svg>
