<svg class="brands__image brands__image--hollis" viewBox="0 0 300 125.76" xmlns="http://www.w3.org/2000/svg">
  <path d="M34.646 47.62c.483.76.138 1.243-.69 1.243h-9.18c-.552 0-.966-.207-1.242-.69L13.527 32.575h-2.83v15.253c0 .62-.414 1.035-1.035 1.035H1.035c-.62 0-1.035-.414-1.035-1.035V1.588C0 .965.414.551 1.035.551h14.7C27.33.552 33.68 7.11 33.68 16.564c0 6.901-3.382 12.284-9.8 14.631l10.766 16.426zM10.697 10.008V23.12h4.831c3.796 0 7.937-1.45 7.937-6.556 0-5.107-4.14-6.557-7.937-6.557h-4.83zm84.1 37.683c.277.69-.068 1.173-.828 1.173h-8.972c-.552 0-.966-.207-1.173-.828l-2.484-7.661H64.43l-2.484 7.66c-.207.622-.62.829-1.173.829h-8.972c-.76 0-1.104-.483-.828-1.173L67.675 1.38c.207-.552.62-.828 1.173-.828h7.937c.552 0 1.104.276 1.31.828l16.703 46.31zm-27.33-16.357h10.905L72.92 14.631l-5.453 16.702zm76.647 4.14l5.314 5.73c.414.482.483.965 0 1.449-4.21 4.416-10.283 7.108-17.047 7.108-13.872 0-24.983-10.973-24.983-24.845C107.398 10.973 118.509 0 132.38 0c6.764 0 12.837 2.692 17.047 7.04.483.552.414.966 0 1.449l-5.314 5.797c-.414.483-.966.483-1.45.07-2.76-2.347-6.142-3.866-10.352-3.866-7.798 0-13.872 6.212-13.872 14.425 0 8.143 6.074 14.355 13.872 14.355 4.21 0 7.592-1.519 10.353-3.865.483-.414 1.035-.414 1.449.069zM205.025.554c.621 0 1.035.413 1.035 1.034v46.24c0 .622-.414 1.036-1.035 1.036h-8.627c-.621 0-1.035-.414-1.035-1.035V29.884h-16.84v17.944c0 .62-.414 1.035-1.035 1.035h-8.627c-.621 0-1.035-.414-1.035-1.035V1.588c0-.622.414-1.036 1.035-1.036h8.627c.621 0 1.035.414 1.035 1.035V20.43h16.84V1.587c0-.62.414-1.035 1.035-1.035h8.627zm47.798 38.855c.621 0 1.035.414 1.035 1.035v7.385c0 .62-.414 1.035-1.035 1.035h-25.95c-.62 0-1.035-.414-1.035-1.035V1.588c0-.622.414-1.036 1.035-1.036h25.881c.621 0 1.035.414 1.035 1.035v7.385c0 .621-.414 1.035-1.035 1.035h-16.219v9.455h15.253c.621 0 1.035.414 1.035 1.036v7.384c0 .621-.414 1.035-1.035 1.035h-15.253v10.49h16.288zm46.142 0c.62 0 1.035.414 1.035 1.035v7.385c0 .62-.414 1.035-1.035 1.035h-24.57c-.62 0-1.035-.414-1.035-1.035V1.588c0-.622.414-1.036 1.035-1.036h8.627c.621 0 1.035.414 1.035 1.035v37.82h14.908zM48.29 76.55c.621 0 1.035.414 1.035 1.035v46.24c0 .622-.414 1.036-1.035 1.036h-8.627c-.621 0-1.035-.414-1.035-1.035v-17.944h-16.84v17.944c0 .62-.414 1.035-1.035 1.035h-8.627c-.621 0-1.035-.414-1.035-1.035v-46.24c0-.622.414-1.036 1.035-1.036h8.627c.621 0 1.035.414 1.035 1.035v18.842h16.84V77.586c0-.62.414-1.035 1.035-1.035h8.627zm44.278 49.208c-13.665 0-24.845-11.042-24.845-24.845 0-13.872 11.18-24.915 24.845-24.915 13.734 0 24.915 11.043 24.915 24.915 0 13.803-11.18 24.845-24.915 24.845zm0-10.421c7.937 0 14.148-6.35 14.148-14.424 0-8.213-6.21-14.563-14.148-14.563-7.867 0-14.079 6.35-14.079 14.563 0 8.074 6.212 14.424 14.08 14.424zm68.917.069c.621 0 1.035.414 1.035 1.035v7.385c0 .62-.414 1.035-1.035 1.035h-24.57c-.62 0-1.035-.414-1.035-1.035v-46.24c0-.622.415-1.036 1.036-1.036h8.627c.62 0 1.035.414 1.035 1.035v37.82h14.907zm45.038 0c.62 0 1.035.414 1.035 1.035v7.385c0 .62-.414 1.035-1.035 1.035h-24.57c-.621 0-1.035-.414-1.035-1.035v-46.24c0-.622.414-1.036 1.035-1.036h8.627c.621 0 1.035.414 1.035 1.035v37.82h14.908zm19.432-37.82c0-.622.414-1.036 1.036-1.036h8.627c.62 0 1.035.414 1.035 1.035v46.24c0 .622-.414 1.036-1.035 1.036h-8.627c-.622 0-1.036-.414-1.036-1.035v-46.24zm40.414 12.56c0 7.592 22.292 4.141 22.292 20.98 0 9.732-8.765 14.632-17.047 14.632-7.178 0-13.458-3.865-16.633-7.592-.345-.483-.345-.966 0-1.449l4.762-5.314c.414-.483.967-.621 1.588-.138 3.52 2.899 6.556 4.417 10.559 4.417 3.382 0 6.28-1.725 6.28-4.762 0-7.523-22.292-5.176-22.292-20.98 0-8.835 7.454-13.942 15.39-13.942 6.212 0 11.112 2.554 15.046 6.419.552.483.552.897.138 1.449l-4.486 5.452c-.414.621-.897.69-1.45.276-3.45-2.415-5.727-3.52-8.902-3.52-3.45 0-5.245 1.933-5.245 4.072z" fill="#748493"/>
</svg>
