<svg class="brands__image brands__image--inc" xmlns="http://www.w3.org/2000/svg" viewBox="0 0 289.37 100">
  <path d="M0 0h68.28v23h-12.8v53.73h12.8v21.39H0V76.74h12.81V23H0zm173.41 76.73v-28.3c0-18-13.21-24.65-29.45-24.65-11.56 0-20.38 3.17-28.08 12a13.46 13.46 0 0 1-1.88 2.04V23.06H71.82v21.41h9.64v32.27h-9.64v21.38h53.42V76.74h-10.18V58.2a13.34 13.34 0 0 1 13.76-13.63c6.19 0 11 3 11 9.77v22.4h-9.91v21.38h52.17V77.06l-.15-.33zm94-6.21H238.7c0 7.89-5.73 11.63-12.23 11.63-12.39 0-13.36-10.34-13.36-20.25v-.2c0-9.91 1-20.24 13.36-20.24 9.74 0 11.39 8.46 11.74 16.47l28.79-3.2c-3.08-29.38-32-31.23-39.22-31.23h-1.63C202.38 23.54 179 35.23 179 61.77a37.06 37.06 0 0 0 3 15h.15v.33c7.14 15.8 25.49 22.94 44.1 22.94 15.18 0 36.25-3.65 41-27zm9.8 3.64a12.16 12.16 0 1 0 12.16 12.16 12.16 12.16 0 0 0-12.16-12.16z" fill="#748493"/>
</svg>
