<svg class="brands__image brands__image--success" xmlns="http://www.w3.org/2000/svg" viewBox="0 0 543.27 100">
  <path d="M64.34 68.64c0 22-16.88 30.94-31.88 30.94-10.53 0-19.72-3-23.91-3a14.42 14.42 0 0 0-6.89 2H0V66.47h1.25c4.46 20 15.14 31.63 31.48 31.63 12 0 22.84-6.22 22.84-20.95 0-27-54.31-10.26-54.31-49.44C1.26 7.58 17.46 0 30.57 0c5.81 0 16.08 2.17 20.27 2.17A11.4 11.4 0 0 0 57.58.28L59 .33l-.2 27.79h-1.22C54.88 14.47 44.89 1.38 30.31 1.38 18 1.38 9 8.4 9 20c0 26.09 55.34 9.46 55.34 48.64zM161.24 3V1.62h-31.6V3h1.07c10.14 0 13.78 4.58 13.78 25.79v34.85c0 24.87-12 33.92-30.39 33.92-19.46 0-22.16-12.71-22.16-32.56V8c0-4.74.56-5 1.35-5h10.14V1.62H63.86V3H74c.81 0 1.34.26 1.34 5v54.69c0 26.5 8.13 37.31 36.49 37.31 20.54 0 34.59-8.94 34.59-36.36V28.78C146.4 7.57 150 3 160.18 3zm38.14 95.25c-22.14 0-25.53-21.37-25.53-50.53 0-28 3.12-46.22 24.85-46.22 13.92 0 23.92 7.57 30.68 27.7h1.21l-.08-28h-2.36a10.42 10.42 0 0 1-6.06 2.15C218 3.38 209.24 0 199 0c-22.45 0-44.2 16.35-44.2 50.13 0 34.45 22.7 49.59 45.13 49.59 11.6 0 16.88-4.06 22.28-4.06a11.27 11.27 0 0 1 6.21 1.9h2.09l.19-29.7-1-.16c-3.29 16.88-12.48 30.54-30.32 30.54zm83.33 0c-22.15 0-25.55-21.37-25.55-50.53 0-28 3.13-46.22 24.89-46.22 13.9 0 23.91 7.57 30.65 27.7h1.21l-.07-28h-2.36a10.41 10.41 0 0 1-6.08 2.15c-4 0-12.83-3.38-23.09-3.38-22.43 0-44.18 16.35-44.18 50.13 0 34.45 22.7 49.59 45.12 49.59 11.62 0 16.89-4.06 22.29-4.06a11.26 11.26 0 0 1 6.22 1.9h2.08l.19-29.7-1.03-.13c-3.27 16.88-12.46 30.54-30.29 30.54zM366.81 3c18.78 0 22.83 7.3 29.18 24.59l1.16-.18V1.64h-73.71V3h10.14c.79 0 1.34.26 1.34 5v83.47c0 4.74-.55 5-1.34 5h-10.14v1.35h73.69L397 68.64h-1.21c-10.94 24.73-8.81 27.84-27.32 27.84-15.54 0-16.89-.13-16.89-7.85V48.79h9.73c8.26.23 14.24.23 16.74 13.76h1.22V32.19H378c-.81 9.17-4.47 14.52-16.61 15.24h-9.86V10c.01-6.35 2.04-7 15.28-7zM415 20c0-11.6 9-18.62 21.32-18.62 14.59 0 24.58 13.09 27.27 26.74h1.22L465 .33h-1.37a11.42 11.42 0 0 1-6.74 1.89C452.67 2.17 442.41 0 436.6 0c-13.12 0-29.32 7.58-29.32 27.71 0 39.18 54.31 22.42 54.31 49.44 0 14.73-10.81 20.95-22.84 20.95-16.33 0-27-11.63-31.47-31.63h-1.22v32.16h1.66a14.42 14.42 0 0 1 6.89-2c4.19 0 13.37 3 23.91 3 15 0 31.88-8.92 31.88-30.94C470.36 29.46 415 46.09 415 20zm72.92 0c0-11.61 9-18.63 21.35-18.63 14.59 0 24.57 13.09 27.27 26.74h1.2l.15-27.78h-1.37a11.48 11.48 0 0 1-6.77 1.89C525.58 2.17 515.31 0 509.51 0c-13.12 0-29.34 7.58-29.34 27.71 0 39.18 54.33 22.42 54.33 49.44 0 14.73-10.82 20.95-22.84 20.95-16.35 0-27-11.63-31.49-31.63H479v32.16h1.66a14.34 14.34 0 0 1 6.88-2c4.2 0 13.38 3 23.92 3 15 0 31.88-8.92 31.88-30.94-.07-39.23-55.45-22.6-55.45-48.69z" fill="#748493"/>
</svg>
