<svg class="brands__image brands__image--voiceology" viewBox="0 0 4188 676" xmlns="http://www.w3.org/2000/svg" fill-rule="evenodd" clip-rule="evenodd" stroke-linejoin="round" stroke-miterlimit="1.414">
  <path d="M935 185.833l75.833-27.083 84.584 207.917 88.333-208.334 70.833 29.584-162.083 346.25L935 185.833zm675.42 157.5c0 100.417-80.417 180-181.25 180-94.167 0-172.5-81.25-172.5-178.333 0-100.833 79.583-183.333 176.666-183.333 97.5-.417 177.084 81.666 177.084 181.666zM1329.17 345c0 58.75 45.833 106.667 102.5 106.667 60.416 0 106.25-46.25 106.25-106.667 0-61.25-45.834-109.167-103.75-109.167-57.5 0-105 50-105 109.167zm433.75-272.083c0 27.083-22.084 49.166-50.834 49.166-26.666 0-48.75-22.916-48.75-49.166 0-27.917 22.084-50 49.584-50 27.916 0 50 22.083 50 50zm-88.334 440.833c1.667-11.25 2.084-20 2.084-39.167-.834-13.333 0-25 0-35.416l-1.667-187.917c-.833-58.75-.833-58.75-2.917-77.5l81.667-.833c-2.083 20.833-3.75 50-4.583 93.75l-2.084 246.666h-72.5v.417zm422.494-40c-38.333 35.417-78.75 52.917-122.916 52.917-92.084 0-158.334-75-158.334-178.334 0-111.25 71.667-190 172.5-190 43.334 0 75.834 12.5 107.5 42.084l-43.333 53.75c-25-20-45-27.084-70-27.084-55.833 0-92.917 46.25-92.917 117.084 0 67.916 36.25 113.333 90 113.333 27.917 0 52.5-10.417 78.75-33.333l38.75 49.583zm332.5-17.5c-49.166 50.833-87.083 70-137.916 70-96.667 0-170.417-77.917-170.417-181.25 0-106.667 72.083-186.25 167.917-186.25 97.083 0 166.666 75.833 166.666 182.917 0 9.583-.833 14.583-2.083 23.75l-259.583 1.666c5.833 52.917 47.083 94.167 95.833 94.167 33.75 0 67.083-16.25 91.25-44.167l48.333 39.167zm-50-154.167c-1.666-42.916-40.416-77.5-87.5-77.5-45.833 0-85.416 32.5-95 77.917l182.5-.417zm467.5 41.25c0 100.417-80.416 180-181.25 180-94.166 0-172.5-81.25-172.5-178.333 0-100.833 79.584-183.333 176.667-183.333 97.5-.417 177.083 81.666 177.083 181.666zM2565.414 345c0 58.75 45.833 106.667 102.5 106.667 60.416 0 106.25-46.25 106.25-106.667 0-61.25-45.834-109.167-103.75-109.167-57.084 0-105 50-105 109.167zm342.916 168.75c.834-16.25 1.667-30.417 1.667-57.5-.833-16.25 0-30.833 0-44.167V115l-.833-50.833c-.834-25.834-.834-27.084-.834-34.584l81.25-14.166-7.5 498.333h-73.75zm491.25-170.417c0 100.417-80.416 180-181.25 180-94.166 0-172.5-81.25-172.5-178.333 0-100.833 79.584-183.333 176.667-183.333 97.5-.417 177.083 81.666 177.083 181.666zM3118.33 345c0 58.75 45.834 106.667 102.5 106.667 60.417 0 106.25-46.25 106.25-106.667 0-61.25-45.833-109.167-103.75-109.167-57.083 0-105 50-105 109.167zm380 210.833c40 20.834 70.834 29.584 102.5 29.584 48.75 0 79.584-31.667 83.334-84.584-30.417 14.584-61.25 22.084-88.334 22.084-90 0-156.25-74.584-156.25-174.584 0-110.416 77.5-190 183.334-190 49.166 0 97.916 17.5 142.083 52.5-7.5 20.834-9.583 33.75-9.583 65l-.834 173.75v14.167c.834 60.417-7.916 102.5-28.75 130.417-25.833 34.583-77.916 58.333-131.25 58.333-36.666 0-66.25-7.5-124.583-32.5l28.333-64.167zm183.334-312.5c-20-13.333-40.417-19.166-63.334-19.166-63.333 0-109.166 51.666-109.166 121.666 0 64.167 42.916 113.334 97.916 113.334 25.834 0 50.834-11.25 75-33.334l-.416-182.5zm196.666-87.083l98.75 221.667 87.5-220.417 65 31.667-132.083 309.583-2.083 5c-33.334 79.583-53.75 115.833-90 156.25l-52.917-47.083c23.75-21.25 42.917-47.917 61.25-84.584 11.25-21.25 25-55.416 25-59.583 0-1.667-1.667-5-4.583-11.667L3809.58 194.167l68.75-37.917zm242.5 357.5h-8.333V477.5h-13.75v-7.917h35.417v7.917h-13.75v36.25h.416zm45.417-10.417h-.833l-13.75-21.25v31.25h-8.334v-44.166h9.167L4165.83 490l13.334-20.833h8.75v44.166h-8.334v-31.25l-13.333 21.25zM360.417 0C154.167 0 0 147.083 0 337.917 0 528.75 153.75 675.833 360.417 675.833c206.25 0 360-147.083 360-337.916C720.417 147.083 566.667 0 360.417 0zm153.75 306.667c-24.584 0-46.25-8.334-58.75-21.25-12.084 25.833-25.417 60-35.834 85.833-4.166 10.833-7.916 20.417-11.25 27.917l-1.666 4.166c-16.667 39.584-37.917 82.084-81.25 82.084-48.334 0-69.584-52.5-90-103.75-16.25-40.834-37.084-87.917-62.917-87.917h-20l7.917-15.833c36.25-77.084 71.25-87.084 97.916-87.084 64.167 0 93.334 72.917 121.667 143.334 4.167 10.416 8.333 20.416 12.5 30.833 0-.417.417-.833.417-1.25 16.25-41.25 39.166-98.75 53.75-119.583 14.583-20.834 35.833-32.084 66.666-32.084 38.75 0 70.417 21.25 70.417 47.084.833 26.25-30.417 47.5-69.583 47.5z" fill="#fff" fill-rule="nonzero"/>
</svg>
